# xmcd
#
# Track frame offsets:
#	150
#	25264
#	57892
#	78260
#	96009
#	111032
#	129307
#	148033
#	169517
#	191916
#	207466
#	228891
#	243838
#	256984
#	276825
#	290976
#	309831
#	326295
#	341208
#
# Disc length: 4784
#
# Revision: 2
# Processed by: cddbd v1.5.1PL0 Copyright (c) Steve Scherf et al.
# Submitted via: audiograbber 1.83.01
# Normalized: r1:DSETVAR1
#
DISCID=0f12ae13
DTITLE=Various Artist - Dance Party Remix. Vol 6. (2000)
DYEAR=1900
DGENRE=
TTITLE0=Kylue Minogue. - On A Night Like This. (Video Club Version)
TTITLE1=Melanie C. - I Turn To You. (Hex-Hector Extended Mix)
TTITLE2=Bilie Piper. - Something Deep Inside. (G.A.Y. Rmx)
TTITLE3=ZZ Bros feat. Frances. - Funkytown '2000. (Club Mix)
TTITLE4=Rumble Rokkaz. - No Koke '2000. (Bomfunk MC's Rmx)
TTITLE5=Marcel Rebel. - Self Control '2000.
TTITLE6=EPO vs. Project House Punk! - Popcorn '2000. (S.Ercolio Mix)
TTITLE7=Africado. - Aicha '2000. (Twin Tower Mix)
TTITLE8=Kaliya. - Ritual Tibetan. (Gi Gi D'Agoustino Mix)
TTITLE9=Keyzer. - Money Cash Cars. (Various Mix)
TTITLE10=Redford. - I Like Chopin '2000. (Extended Version)
TTITLE11=Vanila Ice. - Ice Ice Baby '2000. (Club Mix)
TTITLE12=Guini Rosso. - Un'e State Al Mare'2000. (Space Mix)
TTITLE13=Femali. - Lambada '2000.
TTITLE14=Party People. - It' Your Time '2000.
TTITLE15=Video Kids. - Woodpeckers From Space '2001.
TTITLE16=Captain Hollywood. - The After Party '2000.
TTITLE17=2 Unlimited. - No Limits '2001. (Vocal Club Rmx)
TTITLE18=A-ha. - Minor Eart, Major Sky. (ATB Club Rmx)
EXTD=
EXTT0=
EXTT1=
EXTT2=
EXTT3=
EXTT4=
EXTT5=
EXTT6=
EXTT7=
EXTT8=
EXTT9=
EXTT10=
EXTT11=
EXTT12=
EXTT13=
EXTT14=
EXTT15=
EXTT16=
EXTT17=
EXTT18=
PLAYORDER=
